<?xml version="1.0" encoding="utf-8"?>
<svg width="35px" height="35px" viewBox="0 0 35 35" version="1.1" xmlns:xlink="http://www.w3.org/1999/xlink" xmlns="http://www.w3.org/2000/svg">
  <defs>
    <filter id="filter_1">
      <feColorMatrix in="SourceGraphic" type="matrix" values="0 0 0 0 0.30588236 0 0 0 0 0.19215687 0 0 0 0 0.19215687 0 0 0 1 0" color-interpolation-filters="sRGB" />
    </filter>
  </defs>
  <g id="customize-copy" filter="url(#filter_1)">
    <path d="M32.9289 11.3615C31.1838 13.1154 28.6799 13.7254 26.4796 13.1154L23.217 16.3943L16.5401 23.1809L13.2776 26.4599C13.8846 28.7475 13.2776 31.1876 11.5325 33.0177C9.93912 34.6191 7.81465 35.2291 5.76606 34.9241L8.64926 32.0264L7.51116 27.4512L2.95873 26.3836L0.0755261 29.2813C-0.227969 27.2224 0.379021 25.0873 1.97237 23.486C3.71747 21.7321 6.2213 21.1221 8.49751 21.7321L11.7601 18.4532L18.5129 11.7428L21.7754 8.46387C21.1684 6.17624 21.7754 3.73611 23.5205 1.98226C25.1139 0.380922 27.2383 -0.229112 29.2869 0.0759048L26.4037 2.97357L27.5418 7.54882L32.0943 8.69263L34.9775 5.79497C35.1292 7.62508 34.5222 9.76019 32.9289 11.3615Z" id="Path" fill="#000000" stroke="none" />
    <path d="M17.9672 10.0996L11.1759 16.8909L7.05533 12.7703L13.8466 5.97902L17.9672 10.0996ZM30.7868 22.9191L23.9955 29.7105L18.1198 23.8348L24.9111 17.0435L30.7868 22.9191L30.7868 22.9191ZM12.702 4.91073L9.42084 1.62953C8.58147 0.790156 7.20794 0.790156 6.36857 1.62953L2.62953 5.36857C1.79016 6.20794 1.79016 7.58147 2.62953 8.42084L5.91073 11.702L12.702 4.91073ZM25.0637 30.7788C25.5979 31.2366 26.2084 31.6181 26.8951 31.7707L33.076 32.9916C33.6101 33.068 34.068 32.6101 33.9916 32.076L32.7707 25.8951C32.6181 25.2084 32.3129 24.5979 31.7788 24.0637L25.0637 30.7788Z" id="Shape" fill="#000000" stroke="none" />
  </g>
</svg>