<?xml version="1.0" encoding="utf-8"?>
<svg width="208px" height="82px" viewBox="0 0 208 82" version="1.1" xmlns:xlink="http://www.w3.org/1999/xlink" xmlns="http://www.w3.org/2000/svg">
  <defs>
    <filter id="filter_1">
      <feColorMatrix in="SourceGraphic" type="matrix" values="0 0 0 0 0 0 0 0 0 0 0 0 0 0 0 0 0 0 1 0" color-interpolation-filters="sRGB" />
    </filter>
  </defs>
  <g id="Group-2">
    <g id="Group-15" filter="url(#filter_1)">
      <path d="M46.6874 22.6401C47.9029 23.6322 48.5738 24.9594 48.5738 26.3639C48.5738 27.7684 47.9029 29.0891 46.6874 30.0877C46.3796 30.339 45.9771 30.4678 45.5746 30.4678C45.1721 30.4678 44.7695 30.339 44.4617 30.0877C43.8461 29.5852 43.8461 28.767 44.4617 28.2645C45.0852 27.7555 45.4246 27.0855 45.4246 26.3639C45.4246 25.6423 45.0852 24.9723 44.4617 24.4633C43.8461 23.9608 43.8461 23.1426 44.4617 22.6401C45.0773 22.1375 46.0718 22.1375 46.6874 22.6401ZM51.3286 33.994C51.0131 34.2415 50.6005 34.3684 50.1878 34.3684C49.7752 34.3684 49.3626 34.2415 49.0471 33.994C48.416 33.499 48.416 32.6931 49.0471 32.1982C52.9548 29.1332 52.9548 24.139 49.0471 21.0677C48.416 20.5727 48.416 19.7668 49.0471 19.2718C49.6781 18.7768 50.7056 18.7768 51.3367 19.2718C56.5066 23.3331 56.5066 29.9327 51.3286 33.994ZM56.2957 15.3793C63.9014 21.512 63.9014 31.4968 56.2957 37.6295C55.9867 37.8722 55.5827 38 55.1707 38C54.7587 38 54.3626 37.8722 54.0536 37.6231C53.4357 37.1248 53.4357 36.3135 54.0536 35.8152C60.4234 30.6791 60.4234 22.3169 54.0536 17.1808C53.4357 16.6825 53.4357 15.8712 54.0536 15.3729C54.6716 14.8746 55.6778 14.8746 56.2957 15.3793Z" id="Shape" fill="#000000" stroke="none" />
      <path d="M7.57649 40.9459L7.57649 27.973L15.4422 27.973C20.069 27.973 23.8284 26.8378 26.6623 24.5135C29.5541 22.1892 31 19.1081 31 15.2703C31 11.5405 29.5541 8.56757 26.6623 6.35135C23.7127 4.13514 20.0112 3 15.4422 3L0 3L0 41L7.57649 40.9459ZM15.0373 9.27027C17.4664 9.27027 19.4328 9.81081 20.9366 10.8919C22.4403 11.973 23.1922 13.4865 23.1922 15.3784C23.1922 17.3784 22.4403 18.9459 20.9366 20.0811C19.375 21.2162 17.4086 21.8108 15.0373 21.8108L7.57649 21.8108L7.57649 9.27027L15.0373 9.27027Z" id="Shape" fill="#000000" stroke="none" />
      <path d="M46.9003 13C42.2888 13.009 38.493 14.5267 35.5128 17.4953C32.5436 20.453 31.0203 24.1019 31.0002 28.4422C31.0001 28.4129 31 28.3835 31 28.3541L31 28.5292C31 28.5002 31.0001 28.4712 31.0002 28.4422C31.0203 32.8405 32.5436 36.5471 35.5128 39.5047C38.493 42.4733 42.2888 43.991 46.9003 44L46.9003 37.4026C44.4257 37.3813 42.4069 36.5633 40.7875 34.8927Q38.326 32.3531 38.326 28.5876Q38.326 24.822 40.7875 22.2825C42.4069 20.6118 44.4257 19.7939 46.9003 19.7726L46.9003 13Z" id="Combined-Shape" fill="#000000" fill-rule="evenodd" stroke="none" />
      <g id="Group-14" transform="translate(64 0)">
        <path d="M0 54L7.00752 54L7.00752 38.0609C8.18478 39.5924 9.58628 40.7269 11.2681 41.521C12.9499 42.3151 14.7438 42.7122 16.7059 42.7122C20.7983 42.7122 24.1619 41.2941 26.7967 38.4013C29.4316 35.5084 30.721 31.8782 30.721 27.5105C30.721 23.1429 29.4316 19.5693 26.8528 16.7332C24.274 13.8971 20.9665 12.479 16.9862 12.479C14.912 12.479 12.9499 12.9328 11.156 13.8403C9.36204 14.7479 7.84842 16.0525 6.67116 17.6975L6.67116 13.2164L0 13.2164L0 54ZM23.3771 27.5672C23.3771 30.1197 22.5922 32.1618 21.0226 33.8067C19.4529 35.4517 17.4347 36.3025 15.0241 36.3025C12.6135 36.3025 10.5954 35.5084 9.02568 33.8634C7.456 32.2185 6.67116 30.1765 6.67116 27.6807C6.67116 25.2416 7.456 23.1996 9.02568 21.5546C10.5954 19.9097 12.5575 19.1155 14.9681 19.1155C17.3786 19.1155 19.3407 19.9664 20.9104 21.6113C22.4801 23.2563 23.265 25.2983 23.265 27.7374L23.3771 27.5672Z" id="Shape" fill="#000000" stroke="none" />
        <path d="M48.2071 12.479C43.8344 12.479 40.1905 13.9538 37.2193 16.8466C34.3042 19.7395 32.8466 23.313 32.8466 27.5672C32.8466 31.9349 34.3042 35.5084 37.2193 38.4013C40.1905 41.2941 43.8344 42.7689 48.2071 42.7689C51.9631 42.7689 55.2146 41.6345 57.8494 39.3088C60.5964 36.9832 62.2221 33.9769 62.8388 30.2899L55.8873 30.2899C55.3828 32.0483 54.4298 33.4664 53.0283 34.5441C51.6268 35.6218 50.001 36.1891 48.151 36.1891C45.7405 36.1891 43.7783 35.395 42.2087 33.75C40.639 32.105 39.8541 30.063 39.8541 27.6239C39.8541 25.1849 40.639 23.1429 42.2087 21.4979C43.7783 19.8529 45.7405 19.0588 48.151 19.0588C50.001 19.0588 51.5707 19.5693 52.9161 20.5903C54.3176 21.6681 55.2146 23.0294 55.7192 24.7311L62.7267 24.7311C62.11 21.1576 60.4282 18.208 57.7373 15.9391C55.0464 13.6702 51.7949 12.5357 48.0389 12.5357L48.2071 12.479Z" id="Path" fill="#000000" stroke="none" />
        <path d="M83.2961 41.9748L89.9673 41.9748L89.9673 23.6534C89.9673 20.1933 88.9021 17.4706 86.8279 15.4853C84.7537 13.5 81.8386 12.479 78.0825 12.479C74.6629 12.479 71.8598 13.4433 69.5614 15.3718C67.2629 17.3004 66.0296 19.7395 65.8614 22.6324L72.5886 22.6324C72.8129 21.3277 73.4295 20.3067 74.3826 19.5693C75.3356 18.8319 76.5689 18.4349 78.0265 18.4349C79.5401 18.4349 80.7734 18.8319 81.7264 19.626C82.6795 20.4202 83.1279 21.4979 83.1279 22.8025L83.1279 23.1429L74.9432 25.0714C71.5795 25.8655 69.1129 27 67.5993 28.5315C66.0296 30.063 65.2448 32.0483 65.2448 34.4874C65.2448 36.9265 66.1417 38.9118 67.8796 40.4433C69.6174 41.9748 71.8598 42.7689 74.6068 42.7689C76.3447 42.7689 77.9704 42.3718 79.5401 41.6345C81.0537 40.8971 82.287 39.8193 83.2401 38.4013L83.2961 41.9748ZM76.1765 37.0399C74.831 37.0399 73.822 36.7563 73.0932 36.1891C72.3644 35.6218 72.028 34.8277 72.028 33.75C72.028 32.7857 72.4204 31.9916 73.1492 31.3676C73.878 30.7437 74.9992 30.2332 76.625 29.8361L83.0158 28.3613L83.0158 29.8361C83.0158 31.8214 82.3431 33.4664 80.9977 34.8845C79.6522 36.3025 78.0265 37.0399 76.1204 37.0399L76.1765 37.0399Z" id="Shape" fill="#000000" stroke="none" />
        <path d="M110.705 19.3424C111.097 19.3424 111.322 19.3424 111.714 19.3992L112.611 19.5693L112.611 12.8193C112.499 12.7626 112.275 12.7626 111.938 12.7626L111.097 12.7626C109.247 12.7626 107.622 13.2731 106.108 14.2374C104.65 15.2017 103.417 16.6197 102.464 18.4349L102.464 13.3298L95.7929 13.3298L95.7929 42.0882L102.8 42.0882L102.8 28.1345C102.8 25.4685 103.473 23.3697 104.875 21.8382C106.276 20.25 108.182 19.4559 110.649 19.4559L110.705 19.3424Z" id="Path" fill="#000000" stroke="none" />
        <path d="M127.07 42.7122C129.2 42.7122 131.162 42.2584 132.956 41.3508C134.694 40.4433 136.208 39.1387 137.385 37.437L137.385 42.0315L144 42.0315L144 0L136.992 0L136.992 17.187C135.815 15.7122 134.414 14.5777 132.676 13.7269C130.994 12.9328 129.144 12.5357 127.182 12.5357C123.146 12.5357 119.838 13.9538 117.203 16.8466C114.568 19.7395 113.279 23.3697 113.279 27.7374C113.279 32.105 114.568 35.6786 117.147 38.5147C119.726 41.3508 123.034 42.7689 127.014 42.7689L127.07 42.7122ZM120.511 27.6807C120.511 25.2416 121.296 23.1429 122.865 21.4979C124.435 19.8529 126.453 19.0588 128.864 19.0588C131.274 19.0588 133.236 19.9097 134.806 21.5546C136.376 23.1996 137.161 25.2416 137.161 27.6807C137.161 30.1197 136.376 32.1618 134.806 33.8067C133.236 35.4517 131.274 36.3025 128.864 36.3025C126.453 36.3025 124.435 35.5084 122.865 33.8634C121.296 32.2185 120.511 30.1765 120.511 27.7374L120.511 27.6807Z" id="Shape" fill="#000000" stroke="none" />
      </g>
    </g>
    <g id="Metrics" transform="translate(114 47)">
      <path d="M60.8975 10.6825C60.4925 10.2775 60.3035 9.7645 60.3035 9.1435L60.2495 9.1705C60.2495 8.5495 60.4655 8.0365 60.8705 7.6315C61.2755 7.2265 61.7885 7.0375 62.4635 7.0375C63.1385 7.0375 63.6515 7.2265 64.0565 7.6315C64.4615 8.0365 64.6775 8.5495 64.6775 9.1705C64.6775 9.7915 64.4615 10.3045 64.0565 10.7095C63.6515 11.1145 63.1385 11.3035 62.4635 11.3035C61.8425 11.3035 61.3025 11.0875 60.8975 10.6825ZM5.697 26.9905L5.697 13.7335L12.042 27.0175L13.446 27.0175L19.764 13.8685L19.764 26.9905L23.193 26.9905L23.193 8.0095L19.035 8.0095L12.798 21.1315L6.615 8.0095L2.295 8.0095L2.295 26.9905L5.697 26.9905ZM40.2632 13.3015L42.4502 13.3015L42.4502 9.2515L45.8252 8.4685L45.8252 13.3015L49.2002 13.3015L49.2002 16.3255L45.8252 16.3255L45.8252 22.2385C45.8252 22.9675 45.9872 23.5075 46.2842 23.8585Q46.7297 24.3445 47.7422 24.3445C48.0662 24.3445 48.3902 24.2905 48.7142 24.2095C49.0112 24.1285 49.3352 23.9935 49.6592 23.8045L49.6592 26.7745C49.2542 26.9635 48.8222 27.0985 48.3902 27.2065C47.9582 27.3145 47.4992 27.3685 46.9862 27.3685Q44.7182 27.3685 43.5842 26.1535Q42.4502 24.9385 42.4502 22.5085L42.4502 16.3255L40.2632 16.3255L40.2632 13.3015ZM83.2327 14.0845C84.2587 13.3285 85.5817 12.9505 87.2287 12.9505L87.2017 12.9235C88.8487 12.9235 90.1447 13.3015 91.1167 14.0575C92.0887 14.8135 92.6287 15.8935 92.7367 17.3245L89.2807 17.3245C89.2537 16.7035 89.0647 16.2715 88.7137 15.9745C88.3627 15.6775 87.8227 15.5155 87.1477 15.5155C86.5267 15.5155 86.0407 15.6235 85.6897 15.8665Q85.1227 16.231 85.1227 16.8385C85.1227 17.2435 85.2577 17.5405 85.5277 17.7565C85.7707 17.9455 86.3377 18.1615 87.2017 18.3505L88.5517 18.6475C90.1717 18.9985 91.3057 19.5115 91.9807 20.1325C92.6557 20.7805 92.9797 21.6445 92.9797 22.7515Q92.9797 24.8575 91.4407 26.0725Q89.9017 27.2875 87.3097 27.2875Q84.4747 27.2875 82.8547 26.0725C81.7747 25.2625 81.2077 24.0745 81.1537 22.5355L84.6907 22.5355C84.7177 23.2375 84.9607 23.7775 85.3657 24.1555C85.7977 24.5335 86.4187 24.7225 87.2017 24.7225Q88.2952 24.7225 88.9027 24.3175C89.3077 24.0475 89.5237 23.6425 89.5237 23.1295Q89.5237 22.522 89.1187 22.1575C88.8217 21.9145 88.3357 21.6985 87.6337 21.5365L86.0137 21.1585C84.4477 20.7805 83.3407 20.2675 82.6657 19.6465Q81.6937 18.715 81.6937 17.1355C81.6937 15.8665 82.2067 14.8405 83.2327 14.0845ZM32.6056 24.5335Q31.0261 24.5335 29.9326 23.5615C29.2036 22.9135 28.7716 22.0765 28.6096 21.0235L39.7336 21.0235L39.7336 19.9435C39.7336 17.9185 39.0586 16.2445 37.7356 14.9215C36.4126 13.5985 34.7116 12.9505 32.6326 12.9505Q29.5546 12.9505 27.4486 15.0565Q25.3426 17.1625 25.3426 20.1595C25.3426 22.2385 26.0176 23.9395 27.3946 25.3165C28.7716 26.6935 30.4996 27.3955 32.5786 27.3955C34.2796 27.3955 35.7376 26.9635 36.9526 26.1265Q38.7751 24.871 39.4636 22.6435L36.1696 22.6435C35.8186 23.2915 35.3326 23.7775 34.7656 24.1015Q33.8746 24.5875 32.6596 24.5875L32.6056 24.5335ZM73.4691 12.9505C71.3631 12.9505 69.6081 13.6525 68.1771 15.0295Q66.0711 17.095 66.0711 20.1325C66.0711 22.2115 66.7731 23.9125 68.1771 25.2895C69.6081 26.6665 71.3631 27.3685 73.4691 27.3685C75.2781 27.3685 76.8441 26.8285 78.1131 25.7215C79.4361 24.6145 80.2191 23.1835 80.5161 21.4285L77.1681 21.4285Q76.8036 22.684 75.7911 23.4535C75.1161 23.9665 74.3331 24.2365 73.4421 24.2365C72.2811 24.2365 71.3361 23.8585 70.5801 23.0755Q69.4461 21.901 69.4461 20.1595Q69.4461 18.418 70.5801 17.2435C71.3361 16.4605 72.2811 16.0825 73.4421 16.0825C74.3331 16.0825 75.0891 16.3255 75.7371 16.8115C76.4121 17.3245 76.8441 17.9725 77.0871 18.7825L80.4621 18.7825C80.1651 17.0815 79.3551 15.6775 78.0591 14.5975C76.7631 13.5175 75.1971 12.9775 73.3881 12.9775L73.4691 12.9505ZM58.4508 16.2175C58.6398 16.2175 58.7478 16.2175 58.9368 16.2445L59.3689 16.3255L59.3689 13.1125C59.3148 13.0855 59.2068 13.0855 59.0448 13.0855L58.6398 13.0855C57.7488 13.0855 56.9658 13.3285 56.2368 13.7875C55.5348 14.2465 54.9408 14.9215 54.4818 15.7855L54.4818 13.3555L51.2688 13.3555L51.2688 27.0445L54.6438 27.0445L54.6438 20.4025C54.6438 19.1335 54.9678 18.1345 55.6428 17.4055C56.3178 16.6495 57.2358 16.2715 58.4238 16.2715L58.4508 16.2175ZM64.1375 13.3285L64.1375 27.0175L60.7625 27.0175L60.7625 13.3285L64.1375 13.3285ZM32.7136 15.8126C33.6471 15.8172 34.4481 16.0604 35.1166 16.5685Q36.1291 17.338 36.4936 18.6745L28.8526 18.6745Q29.2981 17.338 30.3106 16.5685C30.9792 16.0604 31.7802 15.8172 32.7136 15.8126Z" />
    </g>
  </g>
</svg>